<?xml version="1.0" encoding="UTF-8" standalone="no"?>
<!DOCTYPE svg PUBLIC "-//W3C//DTD SVG 1.1//EN"
 "http://www.w3.org/Graphics/SVG/1.1/DTD/svg11.dtd">
<!-- Generated by graphviz version 2.43.0 (0)
 -->
<!-- Title: wrapped Pages: 1 -->
<svg width="674px" height="99px"
 viewBox="0.00 0.00 673.76 99.00" xmlns="http://www.w3.org/2000/svg" xmlns:xlink="http://www.w3.org/1999/xlink">
<g id="graph0" class="graph" transform="scale(1.0 1.0) rotate(0.0) translate(4.0 95.0)">
<title>wrapped</title>
<polygon fill="white" stroke="transparent" points="-4,4 -4,-95 669.76,-95 669.76,4 -4,4"/>
<g id="clust1" class="cluster">
<title>cluster_1</title>
<polygon fill="none" stroke="black" points="8,-8 8,-83 249.19,-83 249.19,-8 8,-8"/>
<text text-anchor="middle" x="128.59" y="-67.8" font-family="Times,serif" font-size="14.00">hidden</text>
</g>
<!-- &lt;empty&gt;:ClassTypeInfo{type=class java.lang.String} -->
<g id="node1" class="node">
<title>&lt;empty&gt;:ClassTypeInfo{type=class java.lang.String}</title>
<ellipse fill="none" stroke="black" cx="344.78" cy="-34" rx="67.69" ry="18"/>
<text text-anchor="middle" x="344.78" y="-30.3" font-family="Times,serif" font-size="14.00">&lt;empty&gt;:String</text>
</g>
<!-- de.flapdoodle.reverse.transitions.ImmutableDerive:0 -->
<g id="node2" class="node">
<title>de.flapdoodle.reverse.transitions.ImmutableDerive:0</title>
<polygon fill="none" stroke="black" points="502.38,-52 448.38,-52 448.38,-16 502.38,-16 502.38,-52"/>
<text text-anchor="middle" x="475.38" y="-30.3" font-family="Times,serif" font-size="14.00">Derive</text>
</g>
<!-- &lt;empty&gt;:ClassTypeInfo{type=class java.lang.String}&#45;&gt;de.flapdoodle.reverse.transitions.ImmutableDerive:0 -->
<g id="edge2" class="edge">
<title>&lt;empty&gt;:ClassTypeInfo{type=class java.lang.String}&#45;&gt;de.flapdoodle.reverse.transitions.ImmutableDerive:0</title>
<path fill="none" stroke="black" d="M412.72,-34C421.46,-34 430.13,-34 438.1,-34"/>
<polygon fill="black" stroke="black" points="438.1,-37.5 448.1,-34 438.1,-30.5 438.1,-37.5"/>
</g>
<!-- depends:ClassTypeInfo{type=class java.lang.String} -->
<g id="node3" class="node">
<title>depends:ClassTypeInfo{type=class java.lang.String}</title>
<ellipse fill="none" stroke="black" cx="602.07" cy="-34" rx="63.89" ry="18"/>
<text text-anchor="middle" x="602.07" y="-30.3" font-family="Times,serif" font-size="14.00">depends:String</text>
</g>
<!-- de.flapdoodle.reverse.transitions.ImmutableDerive:0&#45;&gt;depends:ClassTypeInfo{type=class java.lang.String} -->
<g id="edge3" class="edge">
<title>de.flapdoodle.reverse.transitions.ImmutableDerive:0&#45;&gt;depends:ClassTypeInfo{type=class java.lang.String}</title>
<path fill="none" stroke="black" d="M502.52,-34C510.23,-34 519.07,-34 528.22,-34"/>
<polygon fill="black" stroke="black" points="528.23,-37.5 538.23,-34 528.23,-30.5 528.23,-37.5"/>
</g>
<!-- de.flapdoodle.reverse.ImmutableMappedWrapper:0__&lt;empty&gt;:ClassTypeInfo{type=class java.lang.String} -->
<g id="node4" class="node">
<title>de.flapdoodle.reverse.ImmutableMappedWrapper:0__&lt;empty&gt;:ClassTypeInfo{type=class java.lang.String}</title>
<ellipse fill="none" stroke="black" cx="173.59" cy="-34" rx="67.69" ry="18"/>
<text text-anchor="middle" x="173.59" y="-30.3" font-family="Times,serif" font-size="14.00">&lt;empty&gt;:String</text>
</g>
<!-- de.flapdoodle.reverse.ImmutableMappedWrapper:0__&lt;empty&gt;:ClassTypeInfo{type=class java.lang.String}&#45;&gt;&lt;empty&gt;:ClassTypeInfo{type=class java.lang.String} -->
<g id="edge4" class="edge">
<title>de.flapdoodle.reverse.ImmutableMappedWrapper:0__&lt;empty&gt;:ClassTypeInfo{type=class java.lang.String}&#45;&gt;&lt;empty&gt;:ClassTypeInfo{type=class java.lang.String}</title>
<path fill="none" stroke="black" d="M241.46,-34C249.8,-34 258.38,-34 266.86,-34"/>
<polygon fill="black" stroke="black" points="267.12,-37.5 277.12,-34 267.12,-30.5 267.12,-37.5"/>
</g>
<!-- de.flapdoodle.reverse.ImmutableMappedWrapper:0__de.flapdoodle.reverse.transitions.ImmutableStart:0 -->
<g id="node5" class="node">
<title>de.flapdoodle.reverse.ImmutableMappedWrapper:0__de.flapdoodle.reverse.transitions.ImmutableStart:0</title>
<polygon fill="none" stroke="black" points="70,-52 16,-52 16,-16 70,-16 70,-52"/>
<text text-anchor="middle" x="43" y="-30.3" font-family="Times,serif" font-size="14.00">Start</text>
</g>
<!-- de.flapdoodle.reverse.ImmutableMappedWrapper:0__de.flapdoodle.reverse.transitions.ImmutableStart:0&#45;&gt;de.flapdoodle.reverse.ImmutableMappedWrapper:0__&lt;empty&gt;:ClassTypeInfo{type=class java.lang.String} -->
<g id="edge1" class="edge">
<title>de.flapdoodle.reverse.ImmutableMappedWrapper:0__de.flapdoodle.reverse.transitions.ImmutableStart:0&#45;&gt;de.flapdoodle.reverse.ImmutableMappedWrapper:0__&lt;empty&gt;:ClassTypeInfo{type=class java.lang.String}</title>
<path fill="none" stroke="black" d="M70.02,-34C77.73,-34 86.59,-34 95.81,-34"/>
<polygon fill="black" stroke="black" points="95.91,-37.5 105.91,-34 95.91,-30.5 95.91,-37.5"/>
</g>
</g>
</svg>
